<?xml version="1.0" encoding="UTF-8"?>
<svg width="625px" height="625px" viewBox="0 0 625 625" version="1.1" xmlns="http://www.w3.org/2000/svg" xmlns:xlink="http://www.w3.org/1999/xlink">
    <title>sample info hover</title>
    <g id="Page-1" stroke="none" stroke-width="1" fill="none" fill-rule="evenodd">
        <g id="sample-info-hover">
            <g id="Group-2" transform="translate(8.000000, 149.000000)">
                <rect id="Rectangle" fill="#8DD3C7" x="0" y="0" width="102" height="102"></rect>
                <rect id="Rectangle-Copy" fill="#FBB4AE" x="102" y="0" width="102" height="102"></rect>
                <rect id="Rectangle-Copy-8" fill="#7FC97F" x="204" y="0" width="102" height="102"></rect>
                <rect id="Rectangle-Copy-7" fill="#ADE2CF" x="306" y="0" width="102" height="102"></rect>
                <rect id="Rectangle-Copy-7" fill="#E41A1C" x="408" y="0" width="102" height="102"></rect>
                <rect id="Rectangle-Copy-7" fill="#3F70AE" x="510" y="0" width="102" height="102"></rect>
            </g>
            <g id="Group-2-Copy" transform="translate(8.000000, 251.000000)">
                <rect id="Rectangle" fill="#E41A1C" x="0" y="0" width="102" height="102"></rect>
                <rect id="Rectangle-Copy" fill="#377EB8" x="102" y="0" width="102" height="102"></rect>
                <rect id="Rectangle-Copy-8" fill="#FDB46B" x="204" y="0" width="102" height="102"></rect>
                <rect id="Rectangle-Copy-7" fill="#BC80BD" x="306" y="0" width="102" height="102"></rect>
                <rect id="Rectangle-Copy-7" fill="#FFFFB3" x="408" y="0" width="102" height="102"></rect>
                <rect id="Rectangle-Copy-7" fill="#ADE2CF" x="510" y="0" width="102" height="102"></rect>
            </g>
            <g id="Group-2-Copy-2" transform="translate(314.000000, 302.000000) scale(-1, 1) translate(-314.000000, -302.000000) translate(8.000000, 149.000000)">
                <rect id="Rectangle" fill="#1B9E77" x="0" y="204" width="102" height="102"></rect>
                <rect id="Rectangle-Copy" fill="#377EB8" x="102" y="204" width="102" height="102"></rect>
                <rect id="Rectangle-Copy-8" fill="#FDB46B" x="204" y="204" width="102" height="102"></rect>
                <rect id="Rectangle-Copy-7" fill="#BAD1E9" x="306" y="204" width="102" height="102"></rect>
                <rect id="Rectangle-Copy-7" fill="#4DAF4A" x="408" y="204" width="102" height="102"></rect>
                <rect id="Rectangle-Copy-7" fill="#CBF03E" x="510" y="204" width="102" height="102"></rect>
                <rect id="scrim" fill="#000000" style="mix-blend-mode: hue;" x="0" y="0" width="612" height="306"></rect>
            </g>
            <rect id="Rectangle-Copy-14" stroke="#3A3A3A" stroke-width="12" x="6" y="6" width="613" height="613" rx="135"></rect>
            <line x1="8.5" y1="149.5" x2="620.5" y2="149.5" id="Line-2" stroke="#3A3A3A" stroke-width="12"></line>
            <line x1="8.5" y1="461.5" x2="620.5" y2="461.5" id="Line-2-Copy" stroke="#3A3A3A" stroke-width="12"></line>
        </g>
    </g>
</svg>