<?xml version="1.0" encoding="UTF-8"?>
<svg width="625px" height="625px" viewBox="0 0 625 625" version="1.1" xmlns="http://www.w3.org/2000/svg" xmlns:xlink="http://www.w3.org/1999/xlink">
    <title>svg save</title>
    <g id="Page-1" stroke="none" stroke-width="1" fill="none" fill-rule="evenodd">
        <g id="svg-save">
            <rect id="Rectangle-Copy-4" stroke="#3A3A3A" stroke-width="12" x="6" y="6" width="613" height="613" rx="135"></rect>
            <path d="M194.1875,556 C186.9375,556 180.59375,553.280788 175.15625,547.842365 C169.71875,542.403941 167,536.059113 167,528.807882 L167,464 L194.1875,464 L194.1875,528.807882 L429.8125,528.807882 L429.8125,464 L457,464 L457,528.807882 C457,536.059113 454.28125,542.403941 448.84375,547.842365 C443.40625,553.280788 437.0625,556 429.8125,556 L194.1875,556 Z M312.5,507 L225,419.416838 L244.494819,399.903491 L298.898964,454.359343 L298.898964,286 L326.101036,286 L326.101036,454.359343 L380.505181,399.903491 L400,419.416838 L312.5,507 Z" id="download" fill="#3A3A3A" fill-rule="nonzero"></path>
            <text id="SVG" font-family="HelveticaNeue-Bold, Helvetica Neue" font-size="200" font-weight="bold" fill="#3A3A3A">
                <tspan x="108.2" y="240">SVG</tspan>
            </text>
        </g>
    </g>
</svg>