<?xml version="1.0" encoding="UTF-8" standalone="no"?>
<svg width="1166px" height="849px" viewBox="0 0 1166 849" version="1.1" xmlns="http://www.w3.org/2000/svg" xmlns:xlink="http://www.w3.org/1999/xlink" xmlns:sketch="http://www.bohemiancoding.com/sketch/ns">
    <!-- Generator: Sketch 3.3.1 (12002) - http://www.bohemiancoding.com/sketch -->
    <title>logo</title>
    <desc>Created with Sketch.</desc>
    <defs></defs>
    <g id="Page-1" stroke="none" stroke-width="1" fill="none" fill-rule="evenodd" sketch:type="MSPage">
        <g id="backdrop-+-Encode-Sans---upper-case" sketch:type="MSLayerGroup" transform="translate(0.000000, -132.000000)">
            <g id="logo" transform="translate(0.000000, 132.000000)" sketch:type="MSShapeGroup">
                <rect id="backdrop---rect" fill="#FFFFFF" x="0" y="0" width="1166" height="849"></rect>
                <rect id="backdrop---round-rect" stroke="#808080" stroke-width="34" fill="#FFFFFF" x="122.042744" y="109.055007" width="921.915507" height="632.891396" rx="160"></rect>
                <path d="M259.813557,270.001693 L332.047288,270.001693 L332.047288,582.722144 L259.813557,582.722144 L259.813557,270.001693 Z M520.482414,587.793286 C466.975678,587.793286 427.339046,574.552102 401.571329,548.069337 C375.803612,521.586572 362.919946,481.158702 362.919946,426.784513 C362.919946,372.410325 376.437235,331.841591 403.472217,305.077094 C430.507199,278.312598 471.903894,264.93055 527.663545,264.93055 C542.025879,264.93055 557.232828,265.846164 573.284849,267.677419 C589.33687,269.508674 603.839793,271.973788 616.794056,275.072835 L616.794056,332.968378 C598.48912,329.869331 582.578145,327.545081 569.060654,325.995557 C555.543163,324.446034 543.574731,323.671283 533.154998,323.671283 C514.850062,323.671283 499.502308,325.432079 487.111274,328.953724 C474.720241,332.475368 464.793482,338.250778 457.330701,346.280127 C449.867919,354.309476 444.587729,364.87425 441.48997,377.974767 C438.392212,391.075284 436.843356,407.345037 436.843356,426.784513 C436.843356,445.942258 438.251407,462.000716 441.067551,474.960367 C443.883695,487.920018 448.671068,498.41436 455.429813,506.443709 C462.188559,514.473058 471.059279,520.178037 482.042241,523.558815 C493.025202,526.939594 506.683295,528.629958 523.01693,528.629958 C527.241146,528.629958 532.098922,528.489094 537.590403,528.207362 C543.081883,527.925631 548.643684,527.50304 554.275972,526.939577 L554.275972,423.826347 L620.595831,423.826347 L620.595831,572.579859 C603.698967,577.087564 586.239137,580.750019 568.215815,583.567334 C550.192494,586.38465 534.281519,587.793286 520.482414,587.793286 L520.482414,587.793286 Z M626.54574,270.001693 L702.581247,270.001693 L762.564813,450.87244 L779.884012,515.529506 L784.108207,515.529506 L801.849825,450.87244 L861.833392,270.001693 L936.60164,270.001693 L829.729511,582.722144 L733.840288,582.722144 L626.54574,270.001693 Z" id="IGV---outlines" fill="#4A4A4A"></path>
            </g>
        </g>
    </g>
</svg>