<?xml version="1.0" encoding="UTF-8" standalone="no"?>
<svg width="990px" height="701px" viewBox="0 0 990 701" version="1.1" xmlns="http://www.w3.org/2000/svg" xmlns:xlink="http://www.w3.org/1999/xlink" xmlns:sketch="http://www.bohemiancoding.com/sketch/ns">
    <!-- Generator: Sketch 3.3.1 (12002) - http://www.bohemiancoding.com/sketch -->
    <title>logo</title>
    <desc>Created with Sketch.</desc>
    <defs></defs>
    <g id="Page-1" stroke="none" stroke-width="1" fill="none" fill-rule="evenodd" sketch:type="MSPage">
        <g id="backdrop-+-Encode-Sans---upper-case" sketch:type="MSLayerGroup" transform="translate(-152.000000, -228.000000)">
            <g id="logo" transform="translate(64.000000, 153.000000)" sketch:type="MSShapeGroup">
                <rect id="backdrop---round-rect" stroke="#FFFFFF" stroke-width="34" fill="#FFFFFF" x="122.042744" y="109.055007" width="921.915507" height="632.891396" rx="160"></rect>
                <path d="M258.813557,269.001693 L331.047288,269.001693 L331.047288,581.722144 L258.813557,581.722144 L258.813557,269.001693 Z M519.482414,587.793286 C465.975678,587.793286 426.339046,574.552102 400.571329,548.069337 C374.803612,521.586572 361.919946,481.158702 361.919946,426.784513 C361.919946,372.410325 375.437235,331.841591 402.472217,305.077094 C429.507199,278.312598 470.903894,264.93055 526.663545,264.93055 C541.025879,264.93055 556.232828,265.846164 572.284849,267.677419 C588.33687,269.508674 602.839793,271.973788 615.794056,275.072835 L615.794056,332.968378 C597.48912,329.869331 581.578145,327.545081 568.060654,325.995557 C554.543163,324.446034 542.574731,323.671283 532.154998,323.671283 C513.850062,323.671283 498.502308,325.432079 486.111274,328.953724 C473.720241,332.475368 463.793482,338.250778 456.330701,346.280127 C448.867919,354.309476 443.587729,364.87425 440.48997,377.974767 C437.392212,391.075284 435.843356,407.345037 435.843356,426.784513 C435.843356,445.942258 437.251407,462.000716 440.067551,474.960367 C442.883695,487.920018 447.671068,498.41436 454.429813,506.443709 C461.188559,514.473058 470.059279,520.178037 481.042241,523.558815 C492.025202,526.939594 505.683295,528.629958 522.01693,528.629958 C526.241146,528.629958 531.098922,528.489094 536.590403,528.207362 C542.081883,527.925631 547.643684,527.50304 553.275972,526.939577 L553.275972,423.826347 L619.595831,423.826347 L619.595831,572.579859 C602.698967,577.087564 585.239137,580.750019 567.215815,583.567334 C549.192494,586.38465 533.281519,587.793286 519.482414,587.793286 L519.482414,587.793286 Z M626.54574,272.001693 L702.581247,272.001693 L762.564813,452.87244 L779.884012,517.529506 L784.108207,517.529506 L801.849825,452.87244 L861.833392,272.001693 L936.60164,272.001693 L829.729511,584.722144 L733.840288,584.722144 L626.54574,272.001693 Z" id="IGV---outlines" fill="#807F80"></path>
            </g>
        </g>
    </g>
</svg>